<?xml version="1.0" encoding="UTF-8" standalone="no"?><!-- Generator: Gravit.io --><svg xmlns="http://www.w3.org/2000/svg" xmlns:xlink="http://www.w3.org/1999/xlink" style="isolation:isolate" viewBox="0 0 80 80" width="80pt" height="80pt"><defs><clipPath id="_clipPath_lShtngGJzlXE3ZJOmakdhal1LAfNEWMi"><rect width="80" height="80"/></clipPath></defs><g clip-path="url(#_clipPath_lShtngGJzlXE3ZJOmakdhal1LAfNEWMi)"><path d=" M 73 5 C 74.1 5 75 5.9 75 7 L 75 65 C 75 66.1 74.1 67 73 67 L 34 67 C 32.9 67 32 66.1 32 65 L 32 7 C 32 5.9 32.9 5 34 5 L 73 5 Z  M 73 1 L 34 1 C 30.7 1 28 3.7 28 7 L 28 65 C 28 68.3 30.7 71 34 71 L 73 71 C 76.3 71 79 68.3 79 65 L 79 7 C 79 3.7 76.3 1 73 1 L 73 1 L 73 1 Z " fill="rgb(21,50,92)"/><path d=" M 78 65 C 78 68.3 75.1 71.1 72 72 L 52 79 C 48.7 79 46 76.3 46 73 L 46 15 C 46 11.7 48.2 9.5 52 8 L 72 2 C 75.3 2 78 3.7 78 7 L 78 65 L 78 65 Z " fill="rgb(21,50,92)"/><g><g><path d=" M 13 56.1 L 20 39.9 C 20 37.7 20.4 36 18.3 36 L 16.8 36 L 14.2 41.8 L 12.5 39.2 C 13 38.7 13.4 38 13.4 37.3 C 13.4 36.1 12.4 35.6 11.5 35.6 C 10.5 35.6 9.6 36.2 9.6 37.3 C 9.6 38.1 10.1 38.9 10.6 39.3 L 9 41.8 L 6.3 36 L 4.8 36 C 2.8 36 1.1 37.7 1.1 39.9 L 1.1 56.1 L 13 56.1 L 13 56.1 Z " fill="rgb(21,50,92)"/></g><g><g><g><ellipse vector-effect="non-scaling-stroke" cx="12.3" cy="27.9" rx="5.5" ry="5.899999999999999" fill="rgb(21,50,92)"/><path d=" M 18.3 36 L 16.7 36 L 12.1 45 L 10.7 45 L 6 36 L 4.4 36 C 2.3 36 1 37.4 1 39.6 L 1 56 L 6.5 56 L 6.5 56 L 19 56 L 19 43 L 20.3 41.1 L 21.2 39 C 21.1 36.9 20.3 36 18.3 36 Z " fill="rgb(21,50,92)"/></g><rect x="6" y="55" width="12" height="24" transform="matrix(1,0,0,1,0,0)" fill="rgb(21,50,92)"/><path d=" M 32 34.5 L 17.9 43.5 L 18.1 36 L 32 28.9 L 32 34.5 Z " fill="rgb(21,50,92)"/></g></g></g></g></svg>