<svg height="297mm" viewBox="0 0 744.09448819 1052.3622047" width="210mm" xmlns="http://www.w3.org/2000/svg" xmlns:xlink="http://www.w3.org/1999/xlink"><linearGradient id="a" gradientUnits="userSpaceOnUse" x1="268.94777085599" x2="548.61502159713" y1="711.37238966346" y2="364.6244280696"><stop offset="0" stop-color="#4e505d"/><stop offset="1" stop-color="#7a8597"/></linearGradient><path d="m189.1071 322.17108h399.95996v399.95996h-399.95996z" fill="none"/><path d="m189.14716 322.22372h399.95996v399.95996h-399.95996z" fill="none"/><g fill-rule="evenodd"><path d="m250.36198 322.20215c-11.38801 0-17.06463 5.60138-17.01663 16.82137-.05 93.31375-.05 252.39501-.025 366.04001-.025 11.34125 5.676 17.09412 16.96775 17.01662l172.21687.075c-41.857-20.23375-70.89787-62.98387-70.89787-112.47737 0-68.8875 56.1125-125 125-125 25.58625 0 49.39738 7.75925 69.23825 21.0205v-83.3985c-5.193.475-20.80488 1.81462-38.28125 2.46587-10.61062.4-21.68.5525-31.78713-.125-5.05349-.3-9.82624-.76375-14.72162-1.73337-4.89538-.975-6.72075-.58375-13.72075-6.61625-6.197-5.3375-7.37975-13.40688-7.71475-22.31438s.63125-17.33475 1.73337-25.95225c2.20313-17.235 4.84625-35.668 4.248-44.09175l-.125-1.73337h-195.11712zm230.76175 50.90337c-.05.4-.125.88375-.17125 1.26951-.48875 3.82-.86125 7.39225-1.09875 10.42475 3.96812.2125 8.60387.2575 13.57425.22-2.04688-2.045-3.99825-4.03913-6.07913-6.07913-2.23975-2.1975-3.99662-3.68987-6.22562-5.83488zm-1.5625 19.01851c.0625 1.72.61125 1.45375 0 0zm-2.95413 117.55375c-55.3765 0-100 44.62375-100 100 0 55.3775 44.6235 100 100 100 26.9275 0 51.26588-10.624 69.21387-27.832l.025-144.36038c-17.94987-17.21562-42.30487-27.80762-69.23887-27.80762zm66.96775 205.34662c-3.88638 2.4805-7.92375 4.71588-12.08487 6.76275 5.66974-.64 9.8375-2.74212 12.08487-6.76275z" fill="url(#a)"/><path d="m460.53648 322.19278c4.54587-1.18751 85.24962 76.61749 85.24962 84.97125 0 0-75.43462 7.35249-86.8965-1.29875-11.46175-8.65 3.62213-55.86125 1.64688-83.6725z" fill="#99b000"/><path d="m270.9186 467.5879c-5.03537 0-9.10637 4.0715-9.10637 9.1065 0 5.03625 4.071 9.082 9.10637 9.082h146.55763c17.95037-8.6245 37.96325-13.59862 59.13087-13.59862 7.1545 0 14.12975.71749 20.99613 1.78225-1.165-3.6745-4.47488-6.37213-8.545-6.37213zm0 54.541c-5.03537 0-9.10637 4.04588-9.10637 9.08212 0 5.03501 4.071 9.10638 9.10637 9.10638h87.2315c3.76088-6.38625 7.91425-12.51075 12.622-18.1885zm0 54.541c-5.03537 0-9.10637 4.04587-9.10637 9.08212 0 5.035 4.071 9.08201 9.10637 9.08201h69.01863c.6725-6.20038 1.89325-12.23388 3.36912-18.16413zm124.585 0c-2.3225 5.76675-4.01625 11.845-5.07813 18.16413h62.25588c5.03538 0 9.10638-4.04701 9.10638-9.08201 0-5.03625-4.071-9.08212-9.10638-9.08212z" fill="#fff"/></g><circle cx="476.60709" cy="609.67719" fill="#99b000" r="112.5"/><path d="m536.52435 533.74153c-30.23775 38.79125-56.87125 82.26875-74.11925 121.38624-15.23525-13.82125-24.182-18.4375-36.54625-22.50875l-9.542 14.9775c21.94713 15.05501 34.33925 36.26001 40.23225 59.11376 7.79913 0 15.59838-.125 23.39763-.125 11.30675-66.34875 41.50887-118.15125 68.86925-164.24751l-12.29175-8.61999z" fill="#fff" fill-rule="evenodd"/></svg>