<svg fill="none" height="24" viewBox="0 0 24 24" width="24" xmlns="http://www.w3.org/2000/svg"><g fill="#12131a"><path d="m4 6.8c0-1.68016 0-2.52024.32698-3.16197.28762-.56449.74656-1.02343 1.31105-1.31105.64173-.32698 1.48181-.32698 3.16197-.32698h5.8745c.4892 0 .7338 0 .964.05526.204.04899.3991.1298.5781.23946.2018.12368.3748.29663.7207.64254l2.1254 2.12548c.3459.34591.5189.51886.6426.72069.1096.17894.1904.37403.2394.57811.0553.23017.0553.47476.0553.96394v9.87452c0 1.6802 0 2.5202-.327 3.162-.2876.5645-.7465 1.0234-1.311 1.311-.6418.327-1.4818.327-3.162.327h-6.4c-1.68016 0-2.52024 0-3.16197-.327-.56449-.2876-1.02343-.7465-1.31105-1.311-.32698-.6418-.32698-1.4818-.32698-3.162z" fill-opacity=".25"/><path clip-rule="evenodd" d="m9 14c0-.5523.44772-1 1-1h4c.5523 0 1 .4477 1 1s-.4477 1-1 1h-4c-.55228 0-1-.4477-1-1z" fill-rule="evenodd"/><path d="m14 3.41421c0-.78104.6332-1.41421 1.4142-1.41421.3751 0 .7348.149 1 .41421l3.1716 3.17158c.2652.26521.4142.62492.4142 1 0 .78104-.6332 1.41421-1.4142 1.41421h-2.5858c-1.1046 0-2-.89543-2-2z"/></g></svg>