<svg height="596.92" viewBox="0 0 702.65 596.92" width="702.65" xmlns="http://www.w3.org/2000/svg" xmlns:xlink="http://www.w3.org/1999/xlink"><linearGradient id="a" gradientTransform="matrix(1 0 0 -1 -57.59 598)" gradientUnits="userSpaceOnUse" x1="710.29" x2="621.36" y1="516.29" y2="426.87"><stop offset="0" stop-opacity="0"/><stop offset="1"/></linearGradient><linearGradient id="b" gradientTransform="matrix(.71 .71 .71 -.71 -256.37 427.35)" x1="103.52" x2="112.71" xlink:href="#a" y1="599.81" y2="-219.84"/><linearGradient id="c" gradientTransform="matrix(1 0 0 -1 -57.59 597.94)" x1="323.23" x2="332.41" xlink:href="#a" y1="602.28" y2="-217.38"/><linearGradient id="d" gradientTransform="matrix(1 0 0 -1 -57.61 597.93)" x1="501.58" x2="510.77" xlink:href="#a" y1="604.27" y2="-215.38"/><linearGradient id="e" x1="407.18" x2="417.82" xlink:href="#a" y1="89.46" y2="-287.72"/><linearGradient id="f" x1="665.31" x2="532.61" xlink:href="#a" y1="493.56" y2="460.92"/><linearGradient id="g" gradientTransform="matrix(1 0 0 -1 -57.59 598)" gradientUnits="userSpaceOnUse" x1="672.42" x2="677.88" y1="559.96" y2="544.01"><stop offset="0" stop-color="#ecc4d7"/><stop offset=".42" stop-color="#efd4d1"/><stop offset="1" stop-color="#f2eac9"/></linearGradient><linearGradient id="h" x1="679.99" x2="684.67" xlink:href="#g" y1="577.33" y2="563.12"/><linearGradient id="i" gradientTransform="matrix(1 0 0 -1 0 597.93)" x1="651.54" x2="800.85" xlink:href="#a" y1="517.69" y2="455.61"/><linearGradient id="j" x1="732.43" x2="744.33" xlink:href="#g" y1="507.78" y2="507.78"/><linearGradient id="k" x1="669.32" x2="692.92" xlink:href="#g" y1="473.24" y2="473.24"/><path d="m155.55 113.68c48.34-41.83 122.23-70.48 174.45-33.63 26.48 18.67 40.71 49.92 62.21 74.16s59.55 41.34 85.58 22c12-8.9 18.24-23.4 27.47-35.15 27.46-35 82.19-41.46 120.9-19.58s61 66.78 62.88 111.22c2 49.14-17.87 96.41-23.65 145.25a256.23 256.23 0 0 0 21.15 135.57c6.41 14.07 14.23 28 15.84 43.34s-5.09 33-19.65 38.24c-5.91 2.11-12.36 2-18.63 1.76l-602.86-18.05c-12.44-.37-25.36-.87-36.39-6.62-30.38-15.87-29.32-60.43-15.85-91.94s35.34-62.11 32.3-96.25c-4.52-50.68-64.89-97.83-24.79-148 14.56-18.24 42.13-30.05 59.8-45.73 27.49-24.42 51.43-52.52 79.24-76.59z" fill="#68e1fd" opacity=".18" transform="translate(0 -.07)"/><path d="m645 61.32s8.11 39.08 15 42.07 14.45-9.29 15-9.18 8 8.2 8 8.2-4.3 12.84-17.53 16.87c-7.34 2.23-28.72-21.5-31.7-35.79a104.53 104.53 0 0 1 -1-36.53s8.41 2.2 12.23 14.36z" fill="#68e1fd" transform="translate(0 -.07)"/><path d="m645 61.32s8.11 39.08 15 42.07 14.45-9.29 15-9.18 8 8.2 8 8.2-4.3 12.84-17.53 16.87c-7.34 2.23-28.72-21.5-31.7-35.79a104.53 104.53 0 0 1 -1-36.53s8.41 2.2 12.23 14.36z" fill="url(#a)" transform="translate(0 -.07)"/><path d="m592.41 84.99-146.17 113.99-179.68-121.18-217.55 194.85" fill="none" stroke="#3f3d56" stroke-miterlimit="10" stroke-width="4"/><path d="m49.61 352.82h74.54v229.96h-74.54z" fill="#68e1fd"/><path d="m408.97 279.2h74.54v303.58h-74.54z" fill="#68e1fd"/><path d="m229.29 175.34h74.54v407.44h-74.54z" fill="#68e1fd"/><path d="m588.65 154.41h74.54v428.36h-74.54z" fill="#68e1fd"/><circle cx="49.01" cy="272.72" fill="#68e1fd" r="18.09" transform="matrix(.70710678 -.70710678 .70710678 .70710678 -178.49 114.47)"/><circle cx="266.56" cy="77.81" fill="#68e1fd" r="18.09"/><circle cx="446.23" cy="195.97" fill="#68e1fd" r="18.09"/><circle cx="49.01" cy="272.72" fill="url(#b)" r="18.09" transform="matrix(.70710678 -.70710678 .70710678 .70710678 -178.49 114.47)"/><circle cx="266.56" cy="77.81" fill="url(#c)" r="18.09"/><circle cx="446.23" cy="195.97" fill="url(#d)" r="18.09"/><g transform="translate(0 -.07)"><path d="m689.41 596.09h-675.41a13.24 13.24 0 0 1 -13.28-13.24 13.24 13.24 0 0 1 13.28-13.24h675.41a13.24 13.24 0 0 1 13.24 13.24 13.24 13.24 0 0 1 -13.24 13.24z" fill="#68e1fd"/><path d="m689.41 596.09h-675.41a13.24 13.24 0 0 1 -13.28-13.24 13.24 13.24 0 0 1 13.28-13.24h675.41a13.24 13.24 0 0 1 13.24 13.24 13.24 13.24 0 0 1 -13.24 13.24z" fill="url(#e)"/><path d="m610.27 49s-15.47 3.41-21.62 11.52-6.84 74.23-2 78.62 59.62-4.59 55.33-12.72c-8.14-15.42-1.17-79.5-9.15-79.42s-22.56 2-22.56 2z" fill="#68e1fd"/><path d="m603 73.19s-13.52 56.15-5.1 66.32c0 0-8.19 2.22-11.21-.4s-4.91-36 .25-51 16.06-14.92 16.06-14.92z" fill="url(#f)"/><path d="m611.3 33.34s-1.53 12.08-1.65 15.78 11.48 9.58 14.1 5.93a9 9 0 0 0 1.53-7.34l-.77-8z" fill="url(#g)"/><path d="m610.41 20.22s-1 16.83 4.77 20.34 9 7 16.13-1.12 6.35-21.6 4.79-23.57-20.78-13.74-25.69 4.35z" fill="url(#h)"/><path d="m604.22 9c-1.55 3.71-1.34 7.88-1.11 11.89h1.64c-.32 2.12-.5 4.65 1.13 6 .45.38 1 .63 1.44 1 1.67 1.45 2 5.08 4 6q-.37-4.5-.77-9c-.13-1.53-.37-4.12 1.12-4.5.34-.08.71-.06 1-.16a2.87 2.87 0 0 0 1.45-1.23c.58-.87 1.15-1.74 1.72-2.62a6.7 6.7 0 0 1 2.94-2.9c1.31-.49 3.15.28 3.17 1.68 2.82-2.06 6.79-1.48 10-.16a12.09 12.09 0 0 1 4.5 2.91 5.86 5.86 0 0 1 1.54 5c2.33-8.06 4.94-25.76-12.44-22.43-2.55.52-4.67 2.42-7.25 2.6.31 0-.81-1.24-1-1.33-.89-.38-1.6.14-2.39.48a15.93 15.93 0 0 1 -3.8.77 9.91 9.91 0 0 0 -6.89 6z" fill="#3f3d56"/><path d="m592.15 57s12.92 3.65 10.8 16.18c0 0-17.08 17.45-15.4 21s32.68 22.09 32.68 22.09l-9.88 8.13s-36.82-13.18-39.35-25 3.58-30.15 21.15-42.4z" fill="#68e1fd"/></g><path d="m684.26 64.82-10.8 39.56-28.43 2.18 8.65-43.14z" fill="#68e1fd"/><path d="m684.26 64.82-10.8 39.56-28.43 2.18 8.65-43.14z" fill="url(#i)"/><path d="m676.05 94.4a1.2 1.2 0 0 0 0 .65 1.54 1.54 0 0 0 .6.64c1.7 1.34 2.42 3.9 4.47 4.58a20.18 20.18 0 0 0 4.19-5.91 11.5 11.5 0 0 0 1-8.12 9.52 9.52 0 0 0 -4.67-5.43 3.74 3.74 0 0 0 -3.28-.45 3.4 3.4 0 0 0 -1.65 2.38c-.24 1-.28 2-.59 2.94a28.9 28.9 0 0 0 -1.3 3.27 2.69 2.69 0 0 0 .74 2.44c.36.38.52.22.69.7a7.46 7.46 0 0 1 -.2 2.31z" fill="url(#j)" transform="translate(0 -.07)"/><path d="m626.94 117.33a1.64 1.64 0 0 1 1.35.43 1.35 1.35 0 0 1 -.22 1.57 6.3 6.3 0 0 0 -1 1.35 34.34 34.34 0 0 0 5.34 3.42c1.31.69 2.86 1.56 2.92 3a3.46 3.46 0 0 1 -1.81 2.75 17.07 17.07 0 0 1 -10.29 2.41 11.1 11.1 0 0 1 -6.06-1.68 13.07 13.07 0 0 1 -2.82-3.07l-2.46-3.32a.41.41 0 0 1 -.08-.57l.08-.08 2.93-3.22c3.47-3.77 7.28-3.04 12.12-2.99z" fill="url(#k)" transform="translate(0 -.07)"/><path d="m668.54 218.08c-2.63 2.22-4.86-.83-5.29-3.32a53.77 53.77 0 0 1 -.65-8.41q-.51-22.47-1-44.94a6.29 6.29 0 0 0 -1-4.06c-1.1-1.26-3-1.43-4.61-1.5l-2.8-.13-41.19-1.95c-5.1-.24-10.34-.51-15-2.6s-8.67-6.43-8.81-11.54c.08 2.77 36-4.91 39.06-5.94 5.68-1.89 10.38-4.63 16.27-4.52 6.74.13 13.69 1.33 20.4 1.92 5.75.51 11.92 1.18 16.28 4.95 4.67 4 6.13 10.59 6.51 16.73 1.37 24.28-7.19 43.61-18.17 65.31z" fill="#3f3d56" transform="translate(0 -.07)"/><path d="m665.82 217.61-4-2.21a50.93 50.93 0 0 0 .81-9.05q-.51-22.47-1-44.94a6.29 6.29 0 0 0 -1-4.06c-1.1-1.26-3-1.43-4.61-1.5l-2.8-.13-5.16-10s17.29.06 21.22 5.67-3.46 66.22-3.46 66.22z" fill="#25233a" transform="translate(0 -.07)"/><path d="m659.23 169c0 3.76-1.27 7.41-2.63 10.92-3 7.75-6.38 15.3-9.8 22.85q-5.55 12.22-11.09 24.47c-.65 1.43-1.54 3.06-3.1 3.29-1.83.26-2.92-1.41-3.41-3.37a10.43 10.43 0 0 1 -.31-2.67q.15-23.13 1.9-46.22a5.5 5.5 0 0 0 -.26-2.7 5.25 5.25 0 0 0 -2.25-2c-7.09-4.14-14.78-7.1-22-11s-14.16-8.86-18.42-15.86a4.6 4.6 0 0 1 -.92-3.22c.41-1.94 2.77-2.62 4.72-2.93l40.22-6.45c9-1.45 15.74 11.52 20.23 17.8 3.64 5.09 7.12 10.75 7.12 17.09z" fill="#3f3d56" transform="translate(0 -.07)"/><path d="m628.88 224.44-3 13.32s10.16 7.15 13.11 8 12.76 0 12.76 0 1.54-4.07-3.65-5.89a60.51 60.51 0 0 0 -10-2.52 12.22 12.22 0 0 1 -3-8.42s-3.88.71-6.22-4.49z" fill="#25233a" transform="translate(0 -.07)"/><path d="m662.19 213.6-3 13.31s10.16 7.16 13.11 8 12.76 0 12.76 0 1.54-4.07-3.65-5.89a61.55 61.55 0 0 0 -10-2.53 12.18 12.18 0 0 1 -3-8.41s-3.88.72-6.22-4.48z" fill="#25233a" transform="translate(0 -.07)"/><path d="m632.61 230.48-3.41-3.37a10.43 10.43 0 0 1 -.31-2.67q.15-23.13 1.9-46.22a5.5 5.5 0 0 0 -.26-2.7 5.25 5.25 0 0 0 -2.25-2c-7.09-4.14-14.78-7.1-22-11s-14.16-8.86-18.42-15.86a4.6 4.6 0 0 1 -.92-3.22c.41-1.94 2.77-2.62 4.72-2.93 0 0 30.3 18.9 41.9 26.75s-.95 63.22-.95 63.22z" fill="#25233a" transform="translate(0 -.07)"/></svg>