<svg viewBox="0 0 14 14" xmlns="http://www.w3.org/2000/svg"><path d="m8.2515964 11.20937c.2815739.175014 1.1676549.66213 2.0725346 1.739599.817999-.33423 1.600915-.653431 2.377526-.970093-.352194-.86475-.08478-1.348129-.43533-2.2070484-.239359-.586146-.442405-.642738-.831337-.662802l.122832.30288c.07476.18234-.200952.293484-.27447.112164l-.110292-.269658c-.08942-.2201698-.376843-.163974-.628363-.165444l.149568.366798c.07396.181518-.200532.294306-.27489.112164l-.129486-.318156c-.09191-.2249518-.3914472-.159984-.6450312-.155622l.15834.388326c.07476.183192-.201354.29346-.274896.112614l-.6429615-1.5731052c-.199686-.4892105-.9575342-.1992902-.751146.3068403l.94836 2.3249003c-.138702-.092328-.394386-.206364-.569022-.247332-.5406181-.128238-.8881805.413598-.2619359.802975zm1.5885379-4.9403272q0 .1080293-.08109.1836498-.0811.07562-.1969451.07562-.115851 0-.1969465-.07562-.081095-.07562-.081095-.1836498 0-.1080292.081095-.1836497.081095-.07562.1969465-.07562.11585 0 .1969451.07562.08109.075621.08109.1836497zm1.4828987.5185405v.6049639h-2.0389821v-.2592703l.4634019-.432117.2317049.2160585.7414483-.6913873zm.139024-.9506575h-2.3170267q-.018826 0-.032583.012834-.013757.012823-.013757.030378v1.6420449q0 .017566.013758.030382.013756.012829.032582.012829h2.3170267q.01881 0 .03258-.012834.01376-.012823.01376-.030378v-1.6420449q0-.017544-.01376-.030382-.01375-.012829-.03258-.012829zm.231705.043211v1.6420449q0 .089124-.06806.1525913-.06806.063467-.163642.063467h-2.3170265q-.095577 0-.1636388-.063467-.068062-.063467-.068062-.1525913v-1.6420449q0-.089124.068062-.1525913.068062-.063467.1636388-.063467h2.3170265q.09558 0 .163642.063467.06806.063467.06806.1525913zm-5.1571743.3889061q0 .1080293-.08109.1836498-.0811.07562-.196946.07562-.11585 0-.196946-.07562-.08109-.07562-.08109-.1836498 0-.1080293.08109-.1836498.0811-.07562.196946-.07562.115851 0 .196946.07562.08109.075621.08109.1836498zm1.482886.5185404v.6049639h-2.038968v-.2592703l.463402-.432117.231701.2160585.741443-.6913872zm.139021-.9506575h-2.31701q-.01883 0-.03258.012834-.01376.012823-.01376.030378v1.6420449q0 .017566.01376.030382.01376.012829.03258.012829h2.31701q.01881 0 .03258-.012834.01376-.012823.01376-.030378v-1.6420449q0-.017544-.01376-.030382-.01375-.012829-.03258-.012829zm.231701.043211v1.6420449q0 .089124-.06806.1525913-.06806.063467-.163639.063467h-2.317009q-.09558 0-.163639-.063467-.06806-.063467-.06806-.1525913v-1.6420449q0-.089124.06806-.1525913.06806-.063467.163639-.063467h2.317009q.09558 0 .163639.063467.06806.063467.06806.1525913zm-5.1571541.388906q0 .1080293-.081095.1836498-.081095.07562-.1969459.07562-.1158504 0-.1969458-.07562-.081095-.07562-.081095-.1836498 0-.1080292.081095-.1836497.081095-.07562.1969458-.07562.1158505 0 .1969459.07562.081095.075621.081095.1836497zm1.4828863.5185405v.6049639h-2.0389686v-.2592703l.4634019-.432117.231701.2160585.7414431-.6913873zm.1390206-.9506575h-2.3170098q-.018826 0-.032583.012834-.013757.012823-.013757.030378v1.6420449q0 .017566.013758.030382.013756.012829.032582.012829h2.3170098q.018814 0 .032582-.012834.013758-.012823.013758-.030378v-1.6420449q0-.017544-.013763-.030382-.013751-.012829-.032577-.012829zm.231701.043211v1.6420449q0 .089124-.068062.1525913-.068062.063467-.1636387.063467h-2.3170098q-.095577 0-.1636388-.063467-.068062-.063467-.068062-.1525913v-1.6420449q0-.089124.068062-.1525913.068062-.063467.1636388-.063467h2.3170098q.095577 0 .1636387.063467.068062.063467.068062.1525913zm4.7534848-2.4464352q0 .1080293-.08109.1836498-.0811.07562-.1969453.07562-.1158509 0-.1969463-.07562-.081095-.07562-.081095-.1836498 0-.1080292.081095-.1836497.081095-.07562.1969463-.07562.11585 0 .1969453.07562.08109.075621.08109.1836497zm1.4828977.5185405v.6049639h-2.0389811v-.2592703l.4634019-.432117.2317049.2160585.7414483-.6913873zm.139024-.9506575h-2.3170257q-.018826 0-.032583.012834-.013757.012823-.013757.030378v1.6420449q0 .017566.013758.030382.013756.012829.032582.012829h2.3170257q.01881 0 .03258-.012834.01376-.012823.01376-.030378v-1.6420449q0-.017544-.01376-.030382-.01375-.012829-.03258-.012829zm.231705.043211v1.6420449q0 .089124-.06806.1525913-.06806.063467-.163642.063467h-2.3170255q-.095577 0-.1636388-.063467-.068062-.063467-.068062-.1525913v-1.6420449q0-.089124.068062-.1525913.068062-.063467.1636388-.063467h2.3170255q.09558 0 .163642.063467.06806.063467.06806.1525913zm-5.1571732.3889061q0 .1080293-.081095.1836498-.081095.07562-.1969459.07562-.1158504 0-.1969458-.07562-.081095-.07562-.081095-.1836498 0-.1080293.081095-.1836498.081095-.07562.1969458-.07562.1158505 0 .1969459.07562.081095.075621.081095.1836498zm1.4828863.5185404v.6049639h-2.0389686v-.2592703l.4634019-.432117.231701.2160585.7414431-.6913872zm.1390206-.9506575h-2.3170098q-.018826 0-.032583.012834-.013757.012823-.013757.030378v1.6420449q0 .017566.013758.030382.013756.012829.032582.012829h2.3170098q.018814 0 .032582-.012834.013758-.012823.013758-.030378v-1.6420449q0-.017544-.013763-.030382-.013751-.012829-.032577-.012829zm.231701.043211v1.6420449q0 .089124-.068062.1525913-.068062.063467-.1636387.063467h-2.3170098q-.095577 0-.1636388-.063467-.068062-.063467-.068062-.1525913v-1.6420449q0-.089124.068062-.1525913.068062-.063467.1636388-.063467h2.3170098q.095577 0 .1636387.063467.068062.063467.068062.1525913zm-5.1571541.388906q0 .1080293-.081095.1836498-.081095.07562-.1969459.07562-.1158504 0-.1969458-.07562-.081095-.07562-.081095-.1836498 0-.1080292.081095-.1836497.081095-.07562.1969458-.07562.1158505 0 .1969459.07562.081095.075621.081095.1836497zm1.4828863.5185405v.6049639h-2.0389686v-.2592703l.4634019-.432117.231701.2160585.7414431-.6913873zm.1390206-.9506575h-2.3170098q-.018826 0-.032583.012834-.013757.012823-.013757.030378v1.6420449q0 .017566.013758.030382.013756.012829.032582.012829h2.3170098q.018814 0 .032582-.012834.013758-.012823.013758-.030378v-1.6420449q0-.017544-.013763-.030382-.013751-.012829-.032577-.012829zm.231701.043211v1.6420449q0 .089124-.068062.1525913-.068062.063467-.1636387.063467h-2.3170098q-.095577 0-.1636388-.063467-.068062-.063467-.068062-.1525913v-1.6420449q0-.089124.068062-.1525913.068062-.063467.1636388-.063467h2.3170098q.095577 0 .1636387.063467.068062.063467.068062.1525913zm-3.0866495-1.2440144c-.275 0-.5111979.097135-.7070312.2929688-.1958334.1958333-.2929688.4320313-.2929688.7070312v6.7988282c0 .275.097135.5111976.2929688.7070316.1958333.195833.4320312.292968.7070312.292968h3.4003906c0 .158334-.032943.321615-.099609.488282-.066667.166666-.1345052.3125-.2011718.4375-.0666671.125-.0996098.217057-.0996098.27539 0 .108334.039974.202084.1191406.28125.079167.07917.1729167.117188.28125.117188h.9667969v-3.0039065a2.7780557 2.7780557 0 0 1 .1855469-.9960937h-4.5527344c-.0541633-.0000001-.1010383-.0189938-.140625-.0585938-.0395867-.03962-.0585938-.0864917-.0585938-.140625v-5.1992188c0-.054153.019007-.1010249.058594-.140625.0395831-.0396.0864581-.0605468.1406248-.0605468h10c.05415 0 .101025.020947.140625.060547.0396.03962.05859.086492.05859.140625v3.6152344h.800781v-3.6152344c.000004-.2750001-.097131-.5111981-.292965-.7070314-.195833-.1958333-.432031-.2929688-.707031-.2929688z"/></svg>